<?xml version="1.0" encoding="UTF-8"?><svg id="a" xmlns="http://www.w3.org/2000/svg" viewBox="0 0 400 101.42"><defs><style>.b{fill:#bcd4e6;}.c{fill:#2d3d73;}</style></defs><rect class="c" width="400" height="101.48"/><g><path class="b" d="M88.33,43.12c1.45,0,2.82,.27,4.11,.79,1.16,.48,2.23,1.15,3.19,2.01,.17,.15,.18,.42,.02,.58l-2.02,2.08c-.15,.15-.39,.16-.55,.02-.61-.53-1.29-.95-2.04-1.25-.86-.35-1.77-.52-2.71-.52-.88,0-1.72,.15-2.52,.45-.8,.3-1.52,.72-2.15,1.25-.63,.53-1.16,1.17-1.58,1.9-.36,.63-.63,1.3-.79,2.02-.05,.21-.23,.35-.44,.31l-2.66-.43c-.45-.07-.6-.29-.55-.52,.25-1.17,.66-2.25,1.25-3.25,.65-1.11,1.45-2.07,2.41-2.88s2.03-1.44,3.24-1.89c1.21-.45,2.47-.68,3.8-.68Zm0,18.12c.95,0,1.85-.17,2.71-.53,.75-.3,1.43-.72,2.04-1.25,.16-.14,.4-.14,.55,.02l2.01,2.08c.16,.16,.15,.43-.02,.59-.96,.85-2.02,1.52-3.18,2-1.29,.54-2.66,.8-4.11,.8-1.33,0-2.6-.23-3.8-.68-1.21-.45-2.29-1.09-3.25-1.9-.96-.82-1.76-1.78-2.41-2.89-.58-.99-.99-2.07-1.24-3.23-.05-.22,.11-.44,.33-.48l2.87-.48c.21-.04,.4,.1,.45,.31,.16,.73,.43,1.41,.79,2.04,.42,.73,.95,1.37,1.58,1.9,.63,.53,1.35,.95,2.15,1.25,.8,.3,1.64,.45,2.52,.45Z"/><path class="b" d="M180.61,43.12c1.45,0,2.82,.27,4.11,.79,1.16,.48,2.23,1.15,3.19,2.01,.17,.15,.18,.42,.02,.58l-2.02,2.08c-.15,.15-.39,.16-.55,.02-.61-.53-1.29-.95-2.04-1.25-.86-.35-1.77-.52-2.71-.52-.88,0-1.72,.15-2.52,.45-.8,.3-1.52,.72-2.15,1.25-.63,.53-1.16,1.17-1.58,1.9-.36,.63-.63,1.3-.79,2.02-.05,.21-.23,.35-.44,.31l-2.66-.43c-.45-.07-.6-.29-.55-.52,.25-1.17,.66-2.25,1.25-3.25,.65-1.11,1.45-2.07,2.41-2.88s2.03-1.44,3.24-1.89c1.21-.45,2.47-.68,3.8-.68Zm0,18.12c.95,0,1.85-.17,2.71-.53,.75-.3,1.43-.72,2.04-1.25,.16-.14,.4-.14,.55,.02l2.01,2.08c.16,.16,.15,.43-.02,.59-.96,.85-2.02,1.52-3.18,2-1.29,.54-2.66,.8-4.11,.8-1.33,0-2.6-.23-3.8-.68-1.21-.45-2.29-1.09-3.25-1.9-.96-.82-1.76-1.78-2.41-2.89-.58-.99-.99-2.07-1.24-3.23-.05-.22,.11-.44,.33-.48l2.87-.48c.21-.04,.4,.1,.45,.31,.16,.73,.43,1.41,.79,2.04,.42,.73,.95,1.37,1.58,1.9,.63,.53,1.35,.95,2.15,1.25,.8,.3,1.64,.45,2.52,.45Z"/><path class="b" d="M118.59,54.01c0,1.52-.29,2.95-.86,4.28s-1.36,2.49-2.35,3.48-2.14,1.76-3.46,2.32-2.74,.84-4.25,.84-2.95-.29-4.28-.86c-1.33-.58-2.48-1.36-3.46-2.35-.98-.99-1.75-2.14-2.32-3.47-.57-1.33-.85-2.74-.85-4.24s.29-2.93,.86-4.25c.58-1.33,1.36-2.49,2.35-3.48,.99-.99,2.15-1.76,3.47-2.33s2.73-.85,4.22-.85,2.9,.29,4.23,.85c1.32,.57,2.48,1.35,3.47,2.33,.99,.99,1.78,2.15,2.36,3.48s.86,2.75,.86,4.25Zm-10.92,7.22c1,0,1.94-.19,2.82-.57s1.64-.89,2.29-1.54,1.16-1.42,1.54-2.29,.57-1.82,.57-2.82-.19-1.92-.57-2.8-.89-1.65-1.54-2.3c-.65-.66-1.42-1.17-2.29-1.55s-1.82-.57-2.82-.57-1.94,.19-2.82,.57c-.88,.38-1.64,.89-2.29,1.55-.65,.66-1.17,1.43-1.54,2.3-.38,.88-.57,1.81-.57,2.8s.19,1.94,.57,2.82c.38,.88,.89,1.64,1.54,2.29,.65,.65,1.41,1.16,2.29,1.54,.88,.38,1.82,.57,2.82,.57Z"/><path class="b" d="M163.04,43.12h3.06c.22,0,.4,.18,.4,.4v21.02c0,.22-.18,.4-.4,.4h-3.06c-.22,0-.4-.18-.4-.4v-21.02c0-.22,.18-.4,.4-.4Z"/><path class="b" d="M223.08,54.01c0,1.52-.29,2.95-.86,4.28s-1.36,2.49-2.35,3.48-2.14,1.76-3.46,2.32-2.74,.84-4.25,.84-2.95-.29-4.27-.86c-1.33-.58-2.49-1.36-3.47-2.35-.98-.99-1.75-2.14-2.32-3.47s-.85-2.74-.85-4.24,.29-2.93,.86-4.25,1.36-2.49,2.36-3.48c.99-.99,2.15-1.76,3.47-2.33s2.73-.85,4.22-.85,2.9,.29,4.23,.85c1.32,.57,2.48,1.35,3.47,2.33,.99,.99,1.78,2.14,2.36,3.47,.58,1.32,.86,2.74,.86,4.26Zm-10.92,7.22c1,0,1.94-.19,2.82-.57s1.64-.89,2.29-1.54,1.16-1.42,1.54-2.29,.57-1.82,.57-2.82-.19-1.92-.57-2.8-.89-1.65-1.54-2.3c-.65-.66-1.42-1.17-2.29-1.55s-1.82-.57-2.82-.57-1.92,.19-2.8,.57-1.64,.89-2.3,1.55c-.66,.66-1.18,1.43-1.55,2.3-.38,.88-.57,1.81-.57,2.8s.19,1.94,.57,2.82c.38,.88,.89,1.64,1.55,2.29s1.43,1.16,2.3,1.54,1.81,.57,2.8,.57Zm0-9.83c.37,0,.71,.07,1.03,.2,.32,.14,.59,.32,.83,.56,.24,.23,.43,.51,.57,.83,.14,.32,.2,.66,.2,1.02s-.07,.71-.2,1.03c-.14,.32-.33,.59-.57,.83-.24,.24-.52,.43-.83,.57-.32,.14-.66,.2-1.03,.2s-.69-.07-1.01-.2c-.32-.14-.59-.33-.83-.57-.24-.24-.43-.52-.57-.83-.14-.32-.2-.66-.2-1.03s.07-.69,.2-1.02c.14-.32,.33-.6,.57-.83,.24-.23,.52-.42,.83-.56,.32-.14,.65-.2,1.01-.2Zm-104.5,0c.37,0,.71,.07,1.03,.2,.32,.14,.59,.32,.83,.56,.24,.23,.43,.51,.57,.83,.14,.32,.2,.66,.2,1.02s-.07,.71-.2,1.03c-.14,.32-.33,.59-.57,.83-.24,.24-.52,.43-.83,.57-.32,.14-.66,.2-1.03,.2s-.69-.07-1.01-.2c-.32-.14-.59-.33-.83-.57-.24-.24-.43-.52-.57-.83-.14-.32-.2-.66-.2-1.03s.07-.69,.2-1.02c.14-.32,.33-.6,.57-.83,.24-.23,.52-.42,.83-.56,.32-.14,.65-.2,1.01-.2Z"/><path class="b" d="M242.12,54.01c0,1.46-.26,2.86-.76,4.19s-1.29,2.51-2.33,3.54c-.53,.51-1.11,.97-1.73,1.37s-1.32,.74-2.09,1.01c-.77,.27-1.63,.48-2.56,.61-.94,.14-1.98,.2-3.12,.2h-3.51c-.22,0-.4-.18-.4-.4v-21.04c0-.22,.18-.4,.4-.4h3.51c2.17,0,4.04,.27,5.59,.81s2.86,1.33,3.92,2.37c1.04,1.04,1.82,2.23,2.33,3.54s.76,2.71,.76,4.19Zm-3.87,0c0-.91-.14-1.8-.43-2.65-.29-.85-.77-1.6-1.44-2.26-.67-.65-1.57-1.17-2.68-1.56-1.12-.39-2.51-.58-4.19-.58h-.04v14.11h.04c1.52,0,2.83-.16,3.93-.49,1.1-.33,2.01-.8,2.72-1.41s1.24-1.35,1.58-2.22c.34-.87,.51-1.85,.51-2.94Z"/><path class="b" d="M292.52,43.1h11.6c.22,0,.4,.18,.4,.4v3.07c0,.22-.18,.4-.4,.4h-7.73c-.22,0-.4,.18-.4,.4v4.31c0,.22,.18,.4,.4,.4h6.44c.22,0,.4,.18,.4,.4v3.07c0,.22-.18,.4-.4,.4h-6.44c-.22,0-.4,.18-.4,.4v4.31c0,.22,.18,.4,.4,.4h7.73c.22,0,.4,.18,.4,.4v3.07c0,.22-.18,.4-.4,.4h-11.6c-.22,0-.4-.18-.4-.4v-21.04c0-.22,.18-.4,.4-.4Z"/><path class="b" d="M138.17,43.62l12.01,16.79c.1,.14,.1,.33,0,.47l-1.89,2.64c-.16,.22-.49,.22-.65,0l-10.12-14.17c-.05-.07-.07-.15-.07-.23v-5.26c0-.39,.5-.55,.73-.23Zm0,11.29l3.06,4.27c.05,.07,.07,.15,.07,.23v5.12c0,.22-.18,.4-.4,.4h-3.06c-.22,0-.4-.18-.4-.4v-9.39c0-.39,.5-.55,.73-.23Zm11.63-.15l7.98-11.14c.23-.32,.73-.16,.73,.23v20.68c0,.22-.18,.4-.4,.4h-3.06c-.22,0-.4-.18-.4-.4v-8.64c0-.39-.5-.55-.72-.23l-1.59,2.21c-.16,.22-.49,.22-.65,0l-1.87-2.64c-.1-.14-.1-.33,0-.46Z"/><path class="b" d="M247.96,46.97l-1.68,3.41c-.15,.3-.57,.3-.72,0l-3.31-6.71c-.13-.27,.06-.58,.36-.58h3.36c.15,0,.29,.09,.36,.22l1.63,3.3c.06,.11,.06,.24,0,.35Zm3.46,7.52v10.04c0,.22-.18,.4-.4,.4h-3.07c-.22,0-.4-.18-.4-.4v-10.81c0-.06,.01-.12,.04-.18l5.07-10.22c.07-.14,.21-.22,.36-.22h3.34c.3,0,.49,.31,.36,.58l-5.26,10.64c-.03,.06-.04,.12-.04,.18Z"/><path class="b" d="M313.57,46.97l-1.68,3.41c-.15,.3-.57,.3-.72,0l-3.31-6.71c-.13-.27,.06-.58,.36-.58h3.36c.15,0,.29,.09,.36,.22l1.63,3.3c.06,.11,.06,.24,0,.35Zm3.46,7.52v10.04c0,.22-.18,.4-.4,.4h-3.07c-.22,0-.4-.18-.4-.4v-10.81c0-.06,.01-.12,.04-.18l5.07-10.22c.07-.14,.21-.22,.36-.22h3.34c.3,0,.49,.31,.36,.58l-5.26,10.64c-.03,.06-.04,.12-.04,.18Z"/><path class="b" d="M272.35,55.99v1.05c0,1.13-.16,2.17-.47,3.13-.32,.96-.78,1.8-1.4,2.51-.62,.71-1.38,1.26-2.29,1.66s-1.95,.6-3.13,.6h-.02c-.11,0-.4-.03-.88-.08-.47-.05-1.03-.22-1.66-.49-.32-.14-.65-.31-1-.53-.35-.21-.69-.49-1.02-.81-.33-.33-.64-.72-.93-1.18-.22-.35-.42-.75-.6-1.19-.08-.21,.03-.46,.25-.53l2.77-.92c.2-.07,.41,.04,.5,.23,.3,.68,.77,1.17,1.41,1.48,.27,.14,.53,.22,.76,.26,.23,.04,.37,.05,.41,.05,1.06,0,1.87-.27,2.44-.82,.52-.5,.86-1.19,1.03-2.07,.03-.17-.05-.34-.2-.43l-9.63-5.69v-1.07c0-1.14,.16-2.2,.49-3.19,.32-.98,.8-1.84,1.42-2.57,.63-.73,1.39-1.3,2.3-1.71,.91-.41,1.95-.62,3.11-.62,.11,0,.4,.03,.88,.08,.47,.06,1.03,.22,1.68,.5,.32,.14,.65,.31,.99,.53,.34,.21,.68,.48,1.02,.81,.34,.33,.65,.72,.94,1.18,.22,.35,.42,.75,.6,1.19,.08,.21-.03,.46-.25,.53l-2.77,.92c-.2,.07-.41-.04-.5-.24-.3-.69-.77-1.18-1.41-1.48-.29-.14-.55-.22-.77-.26s-.37-.05-.42-.05c-1.07,0-1.89,.31-2.45,.93-.51,.56-.85,1.28-1.02,2.15-.03,.17,.05,.34,.19,.43l9.63,5.71Z"/><path class="b" d="M134.52,55.99v1.05c0,1.13-.16,2.17-.47,3.13-.32,.96-.78,1.8-1.4,2.51-.62,.71-1.38,1.26-2.29,1.66s-1.95,.6-3.13,.6h-.02c-.11,0-.4-.03-.88-.08-.47-.05-1.03-.22-1.66-.49-.32-.14-.65-.31-1-.53-.35-.21-.69-.49-1.02-.81-.33-.33-.64-.72-.93-1.18-.22-.35-.42-.75-.6-1.19-.08-.21,.03-.46,.25-.53l2.77-.92c.2-.07,.41,.04,.5,.23,.3,.68,.77,1.17,1.41,1.48,.27,.14,.53,.22,.76,.26,.23,.04,.37,.05,.41,.05,1.06,0,1.87-.27,2.44-.82,.52-.5,.86-1.19,1.03-2.07,.03-.17-.05-.34-.2-.43l-9.63-5.69v-1.07c0-1.14,.16-2.2,.49-3.19,.32-.98,.8-1.84,1.42-2.57,.63-.73,1.39-1.3,2.3-1.71,.91-.41,1.95-.62,3.11-.62,.11,0,.4,.03,.88,.08,.47,.06,1.03,.22,1.68,.5,.32,.14,.65,.31,.99,.53,.34,.21,.68,.48,1.02,.81,.34,.33,.65,.72,.94,1.18,.22,.35,.42,.75,.6,1.19,.08,.21-.03,.46-.25,.53l-2.77,.92c-.2,.07-.41-.04-.5-.24-.3-.69-.77-1.18-1.41-1.48-.29-.14-.55-.22-.77-.26s-.37-.05-.42-.05c-1.07,0-1.89,.31-2.45,.93-.51,.56-.85,1.28-1.02,2.15-.03,.17,.05,.34,.19,.43l9.63,5.71Z"/><path class="b" d="M288.95,55.99v1.05c0,1.13-.16,2.17-.47,3.13-.32,.96-.78,1.8-1.4,2.51-.62,.71-1.38,1.26-2.29,1.66s-1.95,.6-3.13,.6h-.02c-.11,0-.4-.03-.88-.08-.47-.05-1.03-.22-1.66-.49-.32-.14-.65-.31-1-.53-.35-.21-.69-.49-1.02-.81-.33-.33-.64-.72-.93-1.18-.22-.35-.42-.75-.6-1.19-.08-.21,.03-.46,.25-.53l2.77-.92c.2-.07,.41,.04,.5,.23,.3,.68,.77,1.17,1.41,1.48,.27,.14,.53,.22,.76,.26,.23,.04,.37,.05,.41,.05,1.06,0,1.87-.27,2.44-.82,.52-.5,.86-1.19,1.03-2.07,.03-.17-.05-.34-.2-.43l-9.63-5.69v-1.07c0-1.14,.16-2.2,.49-3.19,.32-.98,.8-1.84,1.42-2.57,.63-.73,1.39-1.3,2.3-1.71,.91-.41,1.95-.62,3.11-.62,.11,0,.4,.03,.88,.08,.47,.06,1.03,.22,1.68,.5,.32,.14,.65,.31,.99,.53,.34,.21,.68,.48,1.02,.81,.34,.33,.65,.72,.94,1.18,.22,.35,.42,.75,.6,1.19,.08,.21-.03,.46-.25,.53l-2.77,.92c-.2,.07-.41-.04-.5-.24-.3-.69-.77-1.18-1.41-1.48-.29-.14-.55-.22-.77-.26s-.37-.05-.42-.05c-1.07,0-1.89,.31-2.45,.93-.51,.56-.85,1.28-1.02,2.15-.03,.17,.05,.34,.19,.43l9.63,5.71Z"/></g></svg>