<?xml version="1.0" encoding="UTF-8"?><svg xmlns="http://www.w3.org/2000/svg" viewBox="0 0 244.76 42.67"><defs><style>.d{fill:#0f0f0f;}.e{fill:#2d3d73;}</style></defs><g id="a"/><g id="b"><g id="c"><g><path class="e" d="M10.7,20.85c1.45,0,2.82,.27,4.11,.79,1.16,.48,2.23,1.15,3.19,2.01,.17,.15,.18,.42,.02,.58l-2.02,2.08c-.15,.15-.39,.16-.55,.02-.61-.53-1.29-.95-2.04-1.25-.86-.35-1.77-.52-2.71-.52-.88,0-1.72,.15-2.52,.45-.8,.3-1.52,.72-2.15,1.25-.63,.53-1.16,1.17-1.58,1.9-.36,.63-.63,1.3-.79,2.02-.05,.21-.23,.35-.44,.31l-2.66-.43c-.45-.07-.6-.29-.55-.52,.25-1.17,.66-2.25,1.25-3.25,.65-1.11,1.45-2.07,2.41-2.88s2.03-1.44,3.24-1.89c1.21-.45,2.47-.68,3.8-.68Zm0,18.12c.95,0,1.85-.17,2.71-.53,.75-.3,1.43-.72,2.04-1.25,.16-.14,.4-.14,.55,.02l2.01,2.08c.16,.16,.15,.43-.02,.59-.96,.85-2.02,1.52-3.18,2-1.29,.54-2.66,.8-4.11,.8-1.33,0-2.6-.23-3.8-.68-1.21-.45-2.29-1.09-3.25-1.9-.96-.82-1.76-1.78-2.41-2.89-.58-.99-.99-2.07-1.24-3.23-.05-.22,.11-.44,.33-.48l2.87-.48c.21-.04,.4,.1,.45,.31,.16,.73,.43,1.41,.79,2.04,.42,.73,.95,1.37,1.58,1.9,.63,.53,1.35,.95,2.15,1.25,.8,.3,1.64,.45,2.52,.45Z"/><path class="e" d="M102.98,20.85c1.45,0,2.82,.27,4.11,.79,1.16,.48,2.23,1.15,3.19,2.01,.17,.15,.18,.42,.02,.58l-2.02,2.08c-.15,.15-.39,.16-.55,.02-.61-.53-1.29-.95-2.04-1.25-.86-.35-1.77-.52-2.71-.52-.88,0-1.72,.15-2.52,.45-.8,.3-1.52,.72-2.15,1.25-.63,.53-1.16,1.17-1.58,1.9-.36,.63-.63,1.3-.79,2.02-.05,.21-.23,.35-.44,.31l-2.66-.43c-.45-.07-.6-.29-.55-.52,.25-1.17,.66-2.25,1.25-3.25,.65-1.11,1.45-2.07,2.41-2.88s2.03-1.44,3.24-1.89c1.21-.45,2.47-.68,3.8-.68Zm0,18.12c.95,0,1.85-.17,2.71-.53,.75-.3,1.43-.72,2.04-1.25,.16-.14,.4-.14,.55,.02l2.01,2.08c.16,.16,.15,.43-.02,.59-.96,.85-2.02,1.52-3.18,2-1.29,.54-2.66,.8-4.11,.8-1.33,0-2.6-.23-3.8-.68-1.21-.45-2.29-1.09-3.25-1.9-.96-.82-1.76-1.78-2.41-2.89-.58-.99-.99-2.07-1.24-3.23-.05-.22,.11-.44,.33-.48l2.87-.48c.21-.04,.4,.1,.45,.31,.16,.73,.43,1.41,.79,2.04,.42,.73,.95,1.37,1.58,1.9,.63,.53,1.35,.95,2.15,1.25,.8,.3,1.64,.45,2.52,.45Z"/><path class="e" d="M40.97,31.75c0,1.52-.29,2.95-.86,4.28s-1.36,2.49-2.35,3.48-2.14,1.76-3.46,2.32-2.74,.84-4.25,.84-2.95-.29-4.28-.86c-1.33-.58-2.48-1.36-3.46-2.35-.98-.99-1.75-2.14-2.32-3.47-.57-1.33-.85-2.74-.85-4.24s.29-2.93,.86-4.25c.58-1.33,1.36-2.49,2.35-3.48,.99-.99,2.15-1.76,3.47-2.33s2.73-.85,4.22-.85,2.9,.29,4.23,.85c1.32,.57,2.48,1.35,3.47,2.33,.99,.99,1.78,2.15,2.36,3.48s.86,2.75,.86,4.25Zm-10.92,7.22c1,0,1.94-.19,2.82-.57s1.64-.89,2.29-1.54,1.16-1.42,1.54-2.29,.57-1.82,.57-2.82-.19-1.92-.57-2.8-.89-1.65-1.54-2.3c-.65-.66-1.42-1.17-2.29-1.55s-1.82-.57-2.82-.57-1.94,.19-2.82,.57c-.88,.38-1.64,.89-2.29,1.55-.65,.66-1.17,1.43-1.54,2.3-.38,.88-.57,1.81-.57,2.8s.19,1.94,.57,2.82c.38,.88,.89,1.64,1.54,2.29,.65,.65,1.41,1.16,2.29,1.54,.88,.38,1.82,.57,2.82,.57Z"/><path class="e" d="M85.42,20.85h3.06c.22,0,.4,.18,.4,.4v21.02c0,.22-.18,.4-.4,.4h-3.06c-.22,0-.4-.18-.4-.4V21.25c0-.22,.18-.4,.4-.4Z"/><path class="e" d="M145.46,31.75c0,1.52-.29,2.95-.86,4.28s-1.36,2.49-2.35,3.48-2.14,1.76-3.46,2.32-2.74,.84-4.25,.84-2.95-.29-4.27-.86c-1.33-.58-2.49-1.36-3.47-2.35-.98-.99-1.75-2.14-2.32-3.47s-.85-2.74-.85-4.24,.29-2.93,.86-4.25,1.36-2.49,2.36-3.48c.99-.99,2.15-1.76,3.47-2.33s2.73-.85,4.22-.85,2.9,.29,4.23,.85c1.32,.57,2.48,1.35,3.47,2.33,.99,.99,1.78,2.14,2.36,3.47,.58,1.32,.86,2.74,.86,4.26Zm-10.92,7.22c1,0,1.94-.19,2.82-.57s1.64-.89,2.29-1.54,1.16-1.42,1.54-2.29,.57-1.82,.57-2.82-.19-1.92-.57-2.8-.89-1.65-1.54-2.3c-.65-.66-1.42-1.17-2.29-1.55s-1.82-.57-2.82-.57-1.92,.19-2.8,.57-1.64,.89-2.3,1.55c-.66,.66-1.18,1.43-1.55,2.3-.38,.88-.57,1.81-.57,2.8s.19,1.94,.57,2.82c.38,.88,.89,1.64,1.55,2.29s1.43,1.16,2.3,1.54,1.81,.57,2.8,.57Zm0-9.83c.37,0,.71,.07,1.03,.2,.32,.14,.59,.32,.83,.56,.24,.23,.43,.51,.57,.83,.14,.32,.2,.66,.2,1.02s-.07,.71-.2,1.03c-.14,.32-.33,.59-.57,.83-.24,.24-.52,.43-.83,.57-.32,.14-.66,.2-1.03,.2s-.69-.07-1.01-.2c-.32-.14-.59-.33-.83-.57-.24-.24-.43-.52-.57-.83-.14-.32-.2-.66-.2-1.03s.07-.69,.2-1.02c.14-.32,.33-.6,.57-.83,.24-.23,.52-.42,.83-.56,.32-.14,.65-.2,1.01-.2Zm-104.5,0c.37,0,.71,.07,1.03,.2,.32,.14,.59,.32,.83,.56,.24,.23,.43,.51,.57,.83,.14,.32,.2,.66,.2,1.02s-.07,.71-.2,1.03c-.14,.32-.33,.59-.57,.83-.24,.24-.52,.43-.83,.57-.32,.14-.66,.2-1.03,.2s-.69-.07-1.01-.2c-.32-.14-.59-.33-.83-.57-.24-.24-.43-.52-.57-.83-.14-.32-.2-.66-.2-1.03s.07-.69,.2-1.02c.14-.32,.33-.6,.57-.83,.24-.23,.52-.42,.83-.56,.32-.14,.65-.2,1.01-.2Z"/><path class="e" d="M164.5,31.74c0,1.46-.26,2.86-.76,4.19s-1.29,2.51-2.33,3.54c-.53,.51-1.11,.97-1.73,1.37s-1.32,.74-2.09,1.01c-.77,.27-1.63,.48-2.56,.61-.94,.14-1.98,.2-3.12,.2h-3.51c-.22,0-.4-.18-.4-.4V21.23c0-.22,.18-.4,.4-.4h3.51c2.17,0,4.04,.27,5.59,.81s2.86,1.33,3.92,2.37c1.04,1.04,1.82,2.23,2.33,3.54s.76,2.71,.76,4.19Zm-3.87,0c0-.91-.14-1.8-.43-2.65-.29-.85-.77-1.6-1.44-2.26-.67-.65-1.57-1.17-2.68-1.56-1.12-.39-2.51-.58-4.19-.58h-.04v14.11h.04c1.52,0,2.83-.16,3.93-.49,1.1-.33,2.01-.8,2.72-1.41s1.24-1.35,1.58-2.22c.34-.87,.51-1.85,.51-2.94Z"/><path class="e" d="M214.9,20.83h11.6c.22,0,.4,.18,.4,.4v3.07c0,.22-.18,.4-.4,.4h-7.73c-.22,0-.4,.18-.4,.4v4.31c0,.22,.18,.4,.4,.4h6.44c.22,0,.4,.18,.4,.4v3.07c0,.22-.18,.4-.4,.4h-6.44c-.22,0-.4,.18-.4,.4v4.31c0,.22,.18,.4,.4,.4h7.73c.22,0,.4,.18,.4,.4v3.07c0,.22-.18,.4-.4,.4h-11.6c-.22,0-.4-.18-.4-.4V21.23c0-.22,.18-.4,.4-.4Z"/><path class="e" d="M60.55,21.35l12.01,16.79c.1,.14,.1,.33,0,.47l-1.89,2.64c-.16,.22-.49,.22-.65,0l-10.12-14.17c-.05-.07-.07-.15-.07-.23v-5.26c0-.39,.5-.55,.73-.23Zm0,11.29l3.06,4.27c.05,.07,.07,.15,.07,.23v5.12c0,.22-.18,.4-.4,.4h-3.06c-.22,0-.4-.18-.4-.4v-9.39c0-.39,.5-.55,.73-.23Zm11.63-.15l7.98-11.14c.23-.32,.73-.16,.73,.23v20.68c0,.22-.18,.4-.4,.4h-3.06c-.22,0-.4-.18-.4-.4v-8.64c0-.39-.5-.55-.72-.23l-1.59,2.21c-.16,.22-.49,.22-.65,0l-1.87-2.64c-.1-.14-.1-.33,0-.46Z"/><path class="e" d="M170.33,24.7l-1.68,3.41c-.15,.3-.57,.3-.72,0l-3.31-6.71c-.13-.27,.06-.58,.36-.58h3.36c.15,0,.29,.09,.36,.22l1.63,3.3c.06,.11,.06,.24,0,.35Zm3.46,7.52v10.04c0,.22-.18,.4-.4,.4h-3.07c-.22,0-.4-.18-.4-.4v-10.81c0-.06,.01-.12,.04-.18l5.07-10.22c.07-.14,.21-.22,.36-.22h3.34c.3,0,.49,.31,.36,.58l-5.26,10.64c-.03,.06-.04,.12-.04,.18Z"/><path class="e" d="M235.95,24.7l-1.68,3.41c-.15,.3-.57,.3-.72,0l-3.31-6.71c-.13-.27,.06-.58,.36-.58h3.36c.15,0,.29,.09,.36,.22l1.63,3.3c.06,.11,.06,.24,0,.35Zm3.46,7.52v10.04c0,.22-.18,.4-.4,.4h-3.07c-.22,0-.4-.18-.4-.4v-10.81c0-.06,.01-.12,.04-.18l5.07-10.22c.07-.14,.21-.22,.36-.22h3.34c.3,0,.49,.31,.36,.58l-5.26,10.64c-.03,.06-.04,.12-.04,.18Z"/><path class="e" d="M194.73,33.72v1.05c0,1.13-.16,2.17-.47,3.13-.32,.96-.78,1.8-1.4,2.51-.62,.71-1.38,1.26-2.29,1.66s-1.95,.6-3.13,.6h-.02c-.11,0-.4-.03-.88-.08-.47-.05-1.03-.22-1.66-.49-.32-.14-.65-.31-1-.53-.35-.21-.69-.49-1.02-.81-.33-.33-.64-.72-.93-1.18-.22-.35-.42-.75-.6-1.19-.08-.21,.03-.46,.25-.53l2.77-.92c.2-.07,.41,.04,.5,.23,.3,.68,.77,1.17,1.41,1.48,.27,.14,.53,.22,.76,.26,.23,.04,.37,.05,.41,.05,1.06,0,1.87-.27,2.44-.82,.52-.5,.86-1.19,1.03-2.07,.03-.17-.05-.34-.2-.43l-9.63-5.69v-1.07c0-1.14,.16-2.2,.49-3.19,.32-.98,.8-1.84,1.42-2.57,.63-.73,1.39-1.3,2.3-1.71,.91-.41,1.95-.62,3.11-.62,.11,0,.4,.03,.88,.08,.47,.06,1.03,.22,1.68,.5,.32,.14,.65,.31,.99,.53,.34,.21,.68,.48,1.02,.81,.34,.33,.65,.72,.94,1.18,.22,.35,.42,.75,.6,1.19,.08,.21-.03,.46-.25,.53l-2.77,.92c-.2,.07-.41-.04-.5-.24-.3-.69-.77-1.18-1.41-1.48-.29-.14-.55-.22-.77-.26s-.37-.05-.42-.05c-1.07,0-1.89,.31-2.45,.93-.51,.56-.85,1.28-1.02,2.15-.03,.17,.05,.34,.19,.43l9.63,5.71Z"/><path class="e" d="M56.9,33.72v1.05c0,1.13-.16,2.17-.47,3.13-.32,.96-.78,1.8-1.4,2.51-.62,.71-1.38,1.26-2.29,1.66s-1.95,.6-3.13,.6h-.02c-.11,0-.4-.03-.88-.08-.47-.05-1.03-.22-1.66-.49-.32-.14-.65-.31-1-.53-.35-.21-.69-.49-1.02-.81-.33-.33-.64-.72-.93-1.18-.22-.35-.42-.75-.6-1.19-.08-.21,.03-.46,.25-.53l2.77-.92c.2-.07,.41,.04,.5,.23,.3,.68,.77,1.17,1.41,1.48,.27,.14,.53,.22,.76,.26,.23,.04,.37,.05,.41,.05,1.06,0,1.87-.27,2.44-.82,.52-.5,.86-1.19,1.03-2.07,.03-.17-.05-.34-.2-.43l-9.63-5.69v-1.07c0-1.14,.16-2.2,.49-3.19,.32-.98,.8-1.84,1.42-2.57,.63-.73,1.39-1.3,2.3-1.71,.91-.41,1.95-.62,3.11-.62,.11,0,.4,.03,.88,.08,.47,.06,1.03,.22,1.68,.5,.32,.14,.65,.31,.99,.53,.34,.21,.68,.48,1.02,.81,.34,.33,.65,.72,.94,1.18,.22,.35,.42,.75,.6,1.19,.08,.21-.03,.46-.25,.53l-2.77,.92c-.2,.07-.41-.04-.5-.24-.3-.69-.77-1.18-1.41-1.48-.29-.14-.55-.22-.77-.26s-.37-.05-.42-.05c-1.07,0-1.89,.31-2.45,.93-.51,.56-.85,1.28-1.02,2.15-.03,.17,.05,.34,.19,.43l9.63,5.71Z"/><path class="e" d="M211.32,33.72v1.05c0,1.13-.16,2.17-.47,3.13-.32,.96-.78,1.8-1.4,2.51-.62,.71-1.38,1.26-2.29,1.66s-1.95,.6-3.13,.6h-.02c-.11,0-.4-.03-.88-.08-.47-.05-1.03-.22-1.66-.49-.32-.14-.65-.31-1-.53-.35-.21-.69-.49-1.02-.81-.33-.33-.64-.72-.93-1.18-.22-.35-.42-.75-.6-1.19-.08-.21,.03-.46,.25-.53l2.77-.92c.2-.07,.41,.04,.5,.23,.3,.68,.77,1.17,1.41,1.48,.27,.14,.53,.22,.76,.26,.23,.04,.37,.05,.41,.05,1.06,0,1.87-.27,2.44-.82,.52-.5,.86-1.19,1.03-2.07,.03-.17-.05-.34-.2-.43l-9.63-5.69v-1.07c0-1.14,.16-2.2,.49-3.19,.32-.98,.8-1.84,1.42-2.57,.63-.73,1.39-1.3,2.3-1.71,.91-.41,1.95-.62,3.11-.62,.11,0,.4,.03,.88,.08,.47,.06,1.03,.22,1.68,.5,.32,.14,.65,.31,.99,.53,.34,.21,.68,.48,1.02,.81,.34,.33,.65,.72,.94,1.18,.22,.35,.42,.75,.6,1.19,.08,.21-.03,.46-.25,.53l-2.77,.92c-.2,.07-.41-.04-.5-.24-.3-.69-.77-1.18-1.41-1.48-.29-.14-.55-.22-.77-.26s-.37-.05-.42-.05c-1.07,0-1.89,.31-2.45,.93-.51,.56-.85,1.28-1.02,2.15-.03,.17,.05,.34,.19,.43l9.63,5.71Z"/></g><g><g><path class="d" d="M35.89,4.15c.06,.13,.14,.32,.24,.58,.18,.43,.45,1.07,.82,1.93h-.62c-.18-.43-.45-1.07-.82-1.93h-4.83c-.18,.43-.45,1.07-.82,1.93h-.62c.18-.43,.45-1.07,.82-1.93,.06-.13,.14-.32,.24-.58,.39-.91,.97-2.29,1.75-4.14h2.08c.29,.69,.58,1.38,.87,2.07,.29,.68,.59,1.37,.88,2.06Zm-4.97,0h4.35c-.34-.79-.84-1.98-1.51-3.56h-1.33c-.25,.59-.5,1.19-.75,1.78-.25,.59-.5,1.19-.75,1.78Z"/><path class="d" d="M43.9,0h.58V6.65h-.73c-1.19-1.33-2.97-3.32-5.34-5.97V6.65h-.58V0h.73c1.19,1.33,2.97,3.32,5.34,5.98V0Z"/><path class="d" d="M56.28,4.15c.06,.13,.14,.32,.24,.58,.18,.43,.45,1.07,.82,1.93h-.62c-.18-.43-.45-1.07-.82-1.93h-4.83c-.18,.43-.45,1.07-.82,1.93h-.62c.18-.43,.45-1.07,.82-1.93,.06-.13,.14-.32,.24-.58,.39-.91,.97-2.29,1.75-4.14h2.08c.29,.69,.58,1.38,.87,2.07,.29,.68,.59,1.37,.88,2.06Zm-4.97,0h4.35c-.34-.79-.84-1.98-1.51-3.56h-1.33c-.25,.59-.5,1.19-.75,1.78-.25,.59-.5,1.19-.75,1.78Z"/><path class="d" d="M63.98,1.12c.21,.23,.38,.47,.5,.72,.13,.26,.22,.54,.28,.84,.04,.23,.06,.45,.06,.67v.22c-.02,.28-.08,.57-.19,.86-.12,.34-.28,.64-.47,.9-.2,.26-.45,.49-.73,.7-.29,.21-.6,.36-.91,.46-.31,.1-.64,.15-1.01,.15h-3.3V.01h3.3c.22,0,.42,.02,.61,.05,.19,.03,.38,.09,.58,.17,.2,.08,.38,.17,.55,.26,.16,.1,.32,.22,.48,.37,.02,.02,.04,.04,.06,.06,.02,.01,.04,.03,.06,.06,.03,.02,.05,.04,.06,.06,.02,.02,.04,.05,.06,.07Zm.12,3.12h.01c.05-.15,.09-.3,.12-.45,.03-.15,.04-.3,.04-.46s-.01-.32-.04-.47c-.03-.15-.07-.3-.12-.45-.1-.28-.24-.53-.4-.74s-.36-.41-.61-.58c-.24-.17-.49-.3-.74-.39-.26-.08-.54-.12-.84-.13h-2.73V6.08h2.73c.17,0,.34-.02,.5-.04,.15-.03,.31-.08,.47-.14,.17-.06,.32-.14,.45-.22,.14-.08,.27-.19,.4-.3,.02-.02,.04-.03,.06-.05,.01-.02,.03-.03,.05-.05,.01-.02,.03-.03,.05-.05,.01-.01,.03-.03,.05-.05,.06-.07,.12-.14,.17-.21,.05-.07,.1-.14,.15-.22,.05-.08,.09-.16,.13-.24,.03-.08,.07-.16,.09-.25Z"/><path class="d" d="M72.85,0h.62c-.63,1.47-1.57,3.69-2.82,6.64h-2.1c-.63-1.47-1.57-3.69-2.82-6.64h.62c.57,1.35,1.43,3.37,2.58,6.08h1.34c.57-1.35,1.43-3.37,2.58-6.08Z"/><path class="d" d="M74.31,0h6.65V.58h-6.08V3.04h3.86v.58h-3.86v2.46h6.08v.58h-6.65V0Z"/><path class="d" d="M87.89,0h.58V6.65h-.73c-1.19-1.33-2.97-3.32-5.34-5.97V6.65h-.58V0h.73c1.19,1.33,2.97,3.32,5.34,5.98V0Z"/><path class="d" d="M89.33,.01h6.63V.58h-3.03V6.64h-.58V.58h-3.03V.01Z"/><path class="d" d="M102.92,4.7V0h.57V4.7c0,.27-.05,.52-.14,.74-.1,.23-.24,.44-.43,.63-.19,.19-.4,.33-.63,.43-.22,.09-.47,.14-.74,.14h-2.77c-.27,0-.51-.05-.74-.14-.23-.1-.44-.24-.63-.43-.19-.19-.33-.4-.42-.63-.1-.22-.15-.47-.15-.74V0h.58V4.86s.02,.09,.03,.15c0,.05,.02,.1,.04,.15,.01,.04,.03,.09,.05,.14,.03,.08,.07,.14,.12,.2,.04,.06,.09,.13,.16,.19,.06,.06,.11,.11,.18,.15s.13,.08,.2,.11c.05,.03,.1,.05,.15,.06,.04,.01,.09,.03,.14,.04,.06,0,.11,.02,.16,.02,.04,0,.09,.01,.15,.01h2.77c.06,0,.11,0,.16-.01,.05,0,.1-.01,.15-.02,.05-.01,.1-.03,.15-.04,.04-.02,.09-.04,.14-.06,.08-.03,.15-.07,.21-.11,.06-.04,.12-.09,.18-.15,.06-.06,.11-.13,.15-.19,.04-.06,.08-.12,.12-.2,.03-.05,.05-.09,.06-.14l.04-.15c0-.05,.01-.11,.02-.15,0-.05,.01-.1,.01-.16Z"/><path class="d" d="M109.9,3.7c-.07,.04-.14,.06-.2,.08s-.13,.04-.21,.05c-.07,.02-.14,.04-.21,.04-.07,0-.14,.01-.22,.01h-.77s.01,.06,.02,.08c0,.04,.01,.07,.02,.1,0,.03,.02,.07,.03,.09,0,.03,.01,.06,.02,.08,.03,.09,.07,.17,.1,.25s.08,.16,.13,.24c.05,.08,.1,.15,.15,.22,.05,.07,.1,.14,.17,.21,.02,.02,.04,.04,.05,.05,.02,.02,.04,.04,.05,.06,.02,.02,.04,.03,.05,.05,.02,.02,.04,.03,.06,.05,.13,.12,.27,.22,.4,.3,.14,.08,.29,.15,.45,.21,.17,.06,.33,.11,.48,.14,.16,.03,.33,.05,.5,.05h.02v.57h-.02c-.22,0-.42-.02-.61-.05s-.38-.09-.58-.17c-.2-.08-.38-.17-.55-.26-.17-.1-.33-.22-.49-.37-.02-.02-.04-.04-.06-.06-.02-.02-.04-.04-.06-.06-.03-.02-.05-.04-.07-.06-.02-.02-.04-.05-.06-.07-.07-.08-.14-.17-.2-.25-.06-.08-.12-.16-.18-.26-.06-.1-.11-.2-.16-.29-.04-.09-.08-.19-.12-.29-.02-.05-.04-.09-.05-.14-.01-.05-.02-.1-.03-.15-.01-.05-.03-.09-.03-.14-.01-.04-.02-.09-.03-.14h-2.77v2.77h-.58V.01h4.7c.27,0,.52,.05,.74,.14,.23,.1,.44,.24,.63,.43,.19,.19,.33,.4,.43,.63,.09,.22,.14,.47,.14,.74v.14s0,.05-.01,.07v.06s-.02,.1-.03,.15c0,.04-.02,.09-.03,.14s-.03,.09-.05,.14c-.01,.04-.03,.09-.05,.14-.05,.11-.11,.2-.17,.28-.06,.09-.14,.18-.22,.26-.08,.08-.16,.15-.25,.21-.08,.06-.18,.12-.28,.17Zm-1.62-.39h.79c.1,0,.19,0,.27-.02,.08-.02,.16-.04,.25-.08,.08-.04,.16-.08,.23-.13,.07-.05,.14-.1,.21-.17,.06-.06,.11-.11,.15-.17,.04-.06,.08-.12,.12-.19s.06-.14,.08-.21c.02-.07,.04-.14,.05-.22v-.04s0-.03,.01-.05v-.09c0-.06,0-.11-.01-.16,0-.05-.01-.1-.02-.15l-.04-.15s-.03-.09-.06-.14c-.03-.08-.07-.15-.12-.21-.04-.05-.09-.11-.15-.18-.06-.05-.12-.1-.18-.15-.06-.04-.13-.08-.21-.11-.05-.03-.09-.05-.14-.06-.05-.01-.1-.03-.15-.04-.05,0-.1-.01-.15-.02s-.1-.01-.16-.01h-4.13V3.31h3.34Z"/><path class="d" d="M111.87,0h6.65V.58h-6.08V3.04h3.86v.58h-3.86v2.46h6.08v.58h-6.65V0Z"/><path class="d" d="M123.67,.01h6.63V.58h-3.03V6.64h-.58V.58h-3.03V.01Z"/><path class="d" d="M137.83,3.04v3.61h-.56V3.62h-5.51v3.04h-.57V0h.57V3.04h5.51V0h.56V3.04Z"/><path class="d" d="M144.24,3.7c-.07,.04-.14,.06-.2,.08-.06,.02-.13,.04-.21,.05-.07,.02-.14,.04-.21,.04-.07,0-.14,.01-.22,.01h-.77s.01,.06,.02,.08c0,.04,.02,.07,.02,.1,0,.03,.02,.07,.03,.09,0,.03,.02,.06,.02,.08,.04,.09,.07,.17,.11,.25s.08,.16,.13,.24c.05,.08,.1,.15,.15,.22,.05,.07,.11,.14,.17,.21,.02,.02,.04,.04,.05,.05,.02,.02,.04,.04,.05,.06,.02,.02,.04,.03,.05,.05,.02,.02,.04,.03,.06,.05,.13,.12,.26,.22,.4,.3,.14,.08,.29,.15,.45,.21,.17,.06,.33,.11,.48,.14,.16,.03,.33,.05,.5,.05h.02v.57h-.02c-.22,0-.42-.02-.61-.05-.19-.04-.38-.09-.58-.17-.2-.08-.38-.17-.54-.26-.17-.1-.33-.22-.49-.37-.02-.02-.04-.04-.06-.06s-.04-.04-.06-.06c-.03-.02-.05-.04-.07-.06s-.04-.05-.06-.07c-.07-.08-.14-.17-.2-.25-.06-.08-.12-.16-.18-.26-.06-.1-.11-.2-.16-.29-.04-.09-.08-.19-.12-.29-.02-.05-.04-.09-.05-.14-.02-.05-.03-.1-.03-.15-.02-.05-.02-.09-.03-.14-.01-.04-.02-.09-.03-.14h-2.77v2.77h-.58V.01h4.7c.27,0,.52,.05,.74,.14,.23,.1,.44,.24,.63,.43,.19,.19,.33,.4,.43,.63,.09,.22,.14,.47,.14,.74v.14s0,.05,0,.07v.06s-.02,.1-.03,.15c0,.04-.02,.09-.03,.14-.01,.05-.03,.09-.05,.14-.01,.04-.03,.09-.05,.14-.05,.11-.11,.2-.17,.28-.06,.09-.14,.18-.22,.26-.08,.08-.16,.15-.25,.21-.08,.06-.18,.12-.28,.17Zm-1.62-.39h.79c.1,0,.19,0,.27-.02,.08-.02,.16-.04,.25-.08,.08-.04,.16-.08,.23-.13,.07-.05,.14-.1,.21-.17,.06-.06,.11-.11,.15-.17s.08-.12,.12-.19c.03-.07,.06-.14,.08-.21,.02-.07,.04-.14,.05-.22v-.04s0-.03,.01-.05v-.09c0-.06,0-.11-.01-.16s-.01-.1-.02-.15c-.02-.05-.03-.1-.04-.15-.02-.04-.04-.09-.06-.14-.04-.08-.07-.15-.11-.21-.04-.05-.09-.11-.15-.18-.06-.05-.12-.1-.18-.15-.06-.04-.13-.08-.21-.11-.05-.03-.09-.05-.14-.06-.05-.01-.1-.03-.15-.04-.05,0-.1-.01-.15-.02s-.1-.01-.16-.01h-4.13V3.31h3.34Z"/><path class="d" d="M153.12,1.11c.28,.32,.49,.66,.63,1.03,.14,.37,.21,.77,.21,1.2s-.07,.82-.21,1.18c-.14,.36-.35,.71-.63,1.03-.02,.02-.04,.04-.06,.06l-.07,.07s-.04,.04-.06,.06c-.02,.02-.04,.04-.06,.06-.16,.14-.32,.26-.48,.36-.17,.1-.35,.2-.54,.27-.2,.07-.4,.12-.59,.16-.19,.04-.39,.05-.6,.05h-1.11c-.21,0-.41-.02-.61-.05-.19-.03-.38-.09-.58-.16-.2-.08-.38-.17-.55-.27-.17-.1-.33-.22-.48-.36-.03-.02-.05-.04-.07-.06l-.06-.06s-.04-.05-.06-.07c-.02-.02-.04-.04-.06-.06-.29-.32-.5-.66-.64-1.03-.14-.36-.21-.76-.21-1.18s.07-.82,.21-1.2c.14-.36,.35-.71,.64-1.03l.06-.06,.06-.06s.04-.05,.06-.06c.02-.02,.05-.04,.07-.06,.15-.15,.32-.27,.48-.37,.16-.1,.34-.19,.55-.26,.2-.08,.39-.13,.58-.17,.19-.04,.39-.05,.61-.05h1.11c.21,0,.41,.02,.6,.05,.19,.03,.38,.09,.59,.17,.2,.08,.38,.17,.54,.26,.16,.1,.32,.22,.48,.37,.02,.02,.04,.04,.06,.06,.02,.01,.04,.03,.06,.06,.03,.02,.05,.04,.07,.06,.01,.02,.04,.04,.06,.06Zm.12,3.13c.03-.08,.05-.15,.06-.22,.02-.07,.04-.15,.05-.23,.02-.08,.02-.16,.03-.23,0-.08,.01-.15,.01-.23,0-.18-.02-.35-.04-.5s-.07-.32-.14-.48c-.06-.16-.14-.31-.22-.45-.08-.13-.18-.27-.3-.4-.02-.02-.03-.04-.05-.05-.02-.02-.03-.04-.05-.06-.02-.01-.04-.03-.05-.05-.02-.01-.04-.03-.05-.05-.13-.12-.27-.22-.41-.3-.13-.08-.28-.15-.45-.21-.16-.06-.32-.11-.48-.15-.15-.03-.32-.04-.49-.04h-1.11c-.17,0-.34,.02-.5,.04-.16,.03-.32,.08-.48,.15-.17,.06-.32,.14-.45,.22-.14,.08-.28,.19-.41,.3-.02,.01-.04,.03-.05,.05-.02,.01-.04,.03-.05,.05-.02,.01-.04,.03-.05,.05-.01,.01-.03,.03-.05,.05-.06,.07-.12,.14-.17,.21-.05,.06-.1,.14-.15,.22-.05,.08-.09,.16-.13,.23-.04,.08-.07,.16-.11,.25-.08,.25-.13,.49-.15,.72-.02,.23,0,.47,.04,.72,.05,.26,.13,.49,.23,.7,.11,.21,.24,.41,.42,.6,.02,.02,.04,.04,.05,.06,.02,.01,.04,.03,.05,.05,.02,.02,.04,.04,.06,.05,.01,.01,.03,.03,.05,.05,.13,.12,.26,.22,.4,.3,.14,.08,.29,.16,.45,.22,.17,.06,.33,.11,.48,.14,.16,.03,.33,.04,.5,.04h1.11c.17,0,.34-.02,.49-.04,.16-.03,.32-.08,.48-.14,.17-.06,.32-.14,.45-.22,.14-.08,.27-.19,.4-.3,.02-.02,.04-.03,.06-.05,.01-.02,.03-.03,.05-.05,.02-.02,.04-.04,.05-.05,.01-.01,.03-.03,.05-.05,.06-.07,.12-.14,.17-.21,.05-.07,.1-.15,.15-.23,.05-.08,.09-.15,.13-.23s.07-.16,.11-.25Z"/><path class="d" d="M160.87,4.7V0h.56V4.7c0,.27-.05,.52-.14,.74-.1,.23-.24,.44-.43,.63-.19,.19-.4,.33-.63,.43-.22,.09-.47,.14-.74,.14h-2.77c-.26,0-.51-.05-.74-.14-.23-.1-.44-.24-.63-.43s-.33-.4-.42-.63c-.1-.22-.15-.47-.15-.74V0h.58V4.86s.02,.09,.03,.15c0,.05,.02,.1,.04,.15,.02,.04,.03,.09,.05,.14,.04,.08,.07,.14,.12,.2,.04,.06,.09,.13,.16,.19,.06,.06,.12,.11,.18,.15,.06,.04,.13,.08,.2,.11,.05,.03,.1,.05,.15,.06,.04,.01,.09,.03,.14,.04,.06,0,.11,.02,.16,.02,.04,0,.09,.01,.15,.01h2.77c.06,0,.11,0,.16-.01,.05,0,.1-.01,.15-.02,.05-.01,.1-.03,.15-.04,.04-.02,.09-.04,.14-.06,.08-.03,.15-.07,.21-.11,.05-.04,.11-.09,.18-.15,.05-.06,.1-.13,.15-.19,.04-.06,.08-.12,.11-.2,.03-.05,.05-.09,.06-.14,.01-.05,.03-.1,.04-.15,0-.05,.01-.11,.02-.15,0-.05,.01-.1,.01-.16Z"/><path class="d" d="M164.51,.2c.09-.03,.18-.06,.27-.08,.08-.02,.17-.04,.27-.05,.1-.02,.19-.04,.27-.04,.09,0,.18,0,.28,0h3.31V.58h-3.31c-.18,0-.34,.02-.49,.05-.15,.03-.31,.07-.48,.14-.16,.06-.31,.13-.45,.21-.13,.08-.26,.19-.4,.3-.28,.25-.5,.54-.65,.86-.15,.32-.23,.66-.26,1.04-.02,.38,.03,.73,.15,1.07,.12,.33,.3,.63,.56,.92l.05,.05s.03,.04,.05,.05c.02,.02,.04,.04,.05,.05l.05,.05c.13,.12,.26,.22,.4,.3,.14,.08,.29,.16,.45,.22,.17,.06,.33,.11,.48,.14,.15,.03,.32,.04,.49,.04h2.73V3.62h-2.73v-.58h3.31v3.6h-3.31c-.21,0-.41-.02-.6-.05-.19-.03-.38-.09-.58-.16-.2-.08-.38-.17-.54-.27-.16-.1-.32-.22-.48-.36-.02-.02-.04-.04-.06-.06-.02-.02-.05-.04-.07-.06-.02-.03-.04-.05-.06-.07-.02-.02-.04-.04-.06-.06-.28-.32-.49-.66-.63-1.03-.14-.36-.21-.76-.21-1.18s.07-.82,.21-1.2c.14-.36,.35-.7,.63-1.02,.02-.03,.04-.05,.06-.07,.02-.02,.04-.04,.06-.06,.02-.03,.05-.05,.07-.06l.06-.06c.08-.08,.17-.15,.25-.21,.08-.05,.17-.11,.26-.18,.1-.05,.2-.1,.29-.15,.09-.04,.19-.08,.29-.13Z"/><path class="d" d="M176.45,3.04v3.61h-.56V3.62h-5.51v3.04h-.57V0h.57V3.04h5.51V0h.56V3.04Z"/><path class="d" d="M181.62,1.8c0-.25,.05-.48,.14-.69,.08-.21,.22-.4,.4-.58,.17-.17,.37-.31,.58-.4,.22-.09,.45-.14,.69-.14h4.85V.58h-4.85c-.34,0-.64,.11-.89,.35-.25,.24-.37,.54-.37,.88s.12,.65,.37,.89c.25,.24,.55,.35,.89,.35h3.04c.5,0,.93,.18,1.28,.53,.36,.35,.53,.77,.53,1.27s-.18,.93-.53,1.28c-.35,.36-.77,.53-1.28,.53h-4.84v-.58h4.84c.34,0,.63-.12,.87-.36,.25-.24,.37-.54,.37-.88s-.12-.62-.37-.87-.53-.35-.87-.35h-3.04c-.24,0-.47-.05-.69-.14-.21-.09-.4-.22-.58-.4-.18-.17-.32-.37-.4-.58-.09-.22-.14-.45-.14-.7Z"/><path class="d" d="M194.67,.19c.17,.08,.33,.18,.46,.3,.13,.11,.24,.25,.34,.41,.11,.17,.18,.34,.23,.5,.05,.17,.07,.35,.07,.53v.07s0,.04-.01,.06v.07s0,.05,0,.07c0,.05-.02,.09-.02,.14-.02,.05-.03,.1-.04,.15-.01,.05-.03,.09-.04,.14-.02,.04-.04,.09-.06,.14-.05,.11-.11,.2-.17,.28-.06,.08-.13,.17-.21,.25-.08,.08-.17,.16-.25,.22-.09,.06-.19,.11-.29,.17-.07,.03-.14,.05-.2,.07-.06,.02-.13,.04-.21,.06-.07,.01-.14,.02-.21,.03-.06,0-.13,0-.21,0h-4.14v2.78h-.58V0h4.71c.08,0,.15,0,.21,.01,.07,0,.14,.02,.21,.04,.08,.02,.15,.03,.21,.05,.06,.03,.13,.06,.2,.08Zm.53,1.95s0-.03,0-.05v-.29s-.02-.1-.03-.15c-.02-.06-.03-.11-.04-.15-.01-.05-.03-.1-.05-.15-.03-.07-.08-.14-.13-.2-.04-.06-.09-.12-.15-.18-.06-.05-.11-.11-.18-.16-.06-.04-.13-.08-.2-.12-.05-.02-.1-.04-.15-.05-.04-.02-.09-.03-.15-.04-.05-.01-.1-.02-.15-.03h-4.29V3.31h4.14s.1,0,.15-.01c.05,0,.1-.01,.15-.02,.05-.01,.11-.03,.15-.04,.05-.02,.1-.04,.15-.06,.04-.01,.07-.03,.09-.05,.04-.01,.07-.03,.1-.06,.03-.02,.07-.04,.09-.06s.06-.05,.08-.07c.05-.06,.1-.11,.15-.17,.04-.06,.08-.12,.11-.19s.06-.14,.08-.21c.02-.07,.04-.14,.05-.22Z"/><path class="d" d="M203.29,4.15c.06,.13,.14,.32,.24,.58,.18,.43,.45,1.07,.82,1.93h-.62c-.18-.43-.45-1.07-.82-1.93h-4.83c-.18,.43-.45,1.07-.82,1.93h-.62c.18-.43,.45-1.07,.82-1.93,.05-.13,.14-.32,.24-.58,.39-.91,.97-2.29,1.75-4.14h2.08c.29,.69,.58,1.38,.87,2.07,.29,.68,.59,1.37,.88,2.06Zm-4.97,0h4.35c-.34-.79-.84-1.98-1.51-3.56h-1.33c-.25,.59-.5,1.19-.76,1.78-.25,.59-.5,1.19-.75,1.78Z"/><path class="d" d="M206.38,.19c.09-.03,.18-.06,.27-.08,.08-.02,.17-.04,.27-.05,.1-.02,.19-.04,.27-.04,.09,0,.19-.01,.28-.01h3.29V.58h-3.29c-.17,0-.34,.02-.49,.04s-.32,.07-.48,.14c-.16,.06-.31,.13-.45,.21-.13,.08-.27,.19-.4,.3-.02,.02-.03,.04-.05,.05-.02,.01-.03,.03-.05,.05-.02,.02-.04,.04-.05,.05-.02,.02-.04,.04-.05,.06-.24,.26-.41,.54-.52,.85-.12,.3-.18,.63-.18,.99s.06,.68,.18,.99c.11,.3,.29,.58,.52,.85,.01,.02,.03,.04,.05,.05,.01,.02,.03,.04,.05,.05,.02,.02,.04,.04,.05,.05,.02,.02,.04,.04,.05,.05,.13,.12,.26,.22,.4,.3,.14,.08,.29,.16,.45,.22,.17,.06,.33,.11,.48,.14s.32,.04,.49,.04h3.29v.57h-3.29c-.21,0-.41-.02-.6-.05-.19-.04-.38-.09-.58-.16-.2-.08-.38-.17-.55-.27-.16-.1-.32-.22-.48-.36l-.06-.06s-.05-.04-.07-.06c-.02-.03-.04-.05-.06-.07l-.06-.06c-.28-.32-.49-.66-.63-1.03-.14-.36-.21-.76-.21-1.18s.07-.82,.21-1.18c.14-.37,.35-.71,.63-1.03,.02-.03,.04-.05,.06-.07,.02-.02,.04-.04,.06-.06,.02-.02,.05-.04,.07-.06,.02-.02,.04-.04,.06-.06,.08-.08,.17-.15,.25-.21,.08-.06,.16-.12,.26-.18,.1-.06,.2-.11,.29-.15,.09-.04,.19-.08,.29-.13Z"/><path class="d" d="M211.67,0h6.65V.58h-6.08V3.04h3.86v.58h-3.86v2.46h6.08v.58h-6.65V0Z"/></g><path class="d" d="M230.41,3.33c-2.12,.51-2.49,.92-2.95,3.26-.46-2.34-.83-2.75-2.95-3.26,2.12-.51,2.49-.92,2.95-3.26,.46,2.34,.83,2.75,2.95,3.26Z"/><path class="d" d="M24.03,3.33c-2.12,.51-2.49,.92-2.95,3.26-.46-2.34-.83-2.75-2.95-3.26,2.12-.51,2.49-.92,2.95-3.26,.46,2.34,.83,2.75,2.95,3.26Z"/></g></g></g></svg>